<svg width="14" height="11" viewBox="0 0 14 11" fill="none" xmlns="http://www.w3.org/2000/svg">
<path d="M1.66667 1.66667L5.73842 4.74151L5.73978 4.74264C6.1919 5.07419 6.41809 5.24006 6.66584 5.30414C6.88482 5.36078 7.115 5.36078 7.33398 5.30414C7.58195 5.24001 7.8088 5.07365 8.26172 4.74151C8.26172 4.74151 10.8734 2.73729 12.3333 1.66667M1 8.20013V3.13346C1 2.38673 1 2.01308 1.14532 1.72786C1.27316 1.47698 1.47698 1.27316 1.72786 1.14532C2.01308 1 2.38673 1 3.13346 1H10.8668C11.6135 1 11.9864 1 12.2716 1.14532C12.5225 1.27316 12.727 1.47698 12.8548 1.72786C13 2.0128 13 2.386 13 3.13127V8.20239C13 8.94766 13 9.32032 12.8548 9.60525C12.727 9.85614 12.5225 10.0603 12.2716 10.1882C11.9867 10.3333 11.614 10.3333 10.8687 10.3333H3.13127C2.386 10.3333 2.0128 10.3333 1.72786 10.1882C1.47698 10.0603 1.27316 9.85614 1.14532 9.60525C1 9.32004 1 8.94687 1 8.20013Z" stroke="#003768" stroke-width="1.25" stroke-linecap="round" stroke-linejoin="round"/>
</svg>
