<svg width="14" height="14" viewBox="0 0 14 14" fill="none" xmlns="http://www.w3.org/2000/svg">
<path d="M4.32396 6.53333C3.53646 6.55764 2.89236 6.86875 2.39167 7.46667H1.41458C1.01597 7.46667 0.680556 7.36823 0.408333 7.17135C0.136111 6.97448 0 6.68646 0 6.30729C0 4.59132 0.301389 3.73333 0.904167 3.73333C0.933333 3.73333 1.03906 3.78437 1.22135 3.88646C1.40365 3.98854 1.64062 4.09184 1.93229 4.19635C2.22396 4.30087 2.51319 4.35313 2.8 4.35313C3.12569 4.35313 3.44896 4.29722 3.76979 4.18542C3.74549 4.36528 3.73333 4.52569 3.73333 4.66667C3.73333 5.34236 3.93021 5.96458 4.32396 6.53333ZM12.1333 11.1781C12.1333 11.7615 11.9559 12.222 11.601 12.5599C11.2462 12.8977 10.7747 13.0667 10.1865 13.0667H3.81354C3.22535 13.0667 2.75382 12.8977 2.39896 12.5599C2.0441 12.222 1.86667 11.7615 1.86667 11.1781C1.86667 10.9205 1.87517 10.6689 1.89219 10.4234C1.9092 10.178 1.94323 9.91302 1.99427 9.62865C2.04531 9.34427 2.10972 9.08056 2.1875 8.8375C2.26528 8.59444 2.36979 8.35747 2.50104 8.12656C2.63229 7.89566 2.78299 7.69878 2.95312 7.53594C3.12326 7.37309 3.33108 7.24306 3.57656 7.14583C3.82205 7.04861 4.09306 7 4.38958 7C4.43819 7 4.54271 7.05226 4.70312 7.15677C4.86354 7.26128 5.04097 7.37795 5.23542 7.50677C5.42986 7.63559 5.68993 7.75226 6.01562 7.85677C6.34132 7.96128 6.66944 8.01354 7 8.01354C7.33056 8.01354 7.65868 7.96128 7.98438 7.85677C8.31007 7.75226 8.57014 7.63559 8.76458 7.50677C8.95903 7.37795 9.13646 7.26128 9.29688 7.15677C9.45729 7.05226 9.56181 7 9.61042 7C9.90694 7 10.178 7.04861 10.4234 7.14583C10.6689 7.24306 10.8767 7.37309 11.0469 7.53594C11.217 7.69878 11.3677 7.89566 11.499 8.12656C11.6302 8.35747 11.7347 8.59444 11.8125 8.8375C11.8903 9.08056 11.9547 9.34427 12.0057 9.62865C12.0568 9.91302 12.0908 10.178 12.1078 10.4234C12.1248 10.6689 12.1333 10.9205 12.1333 11.1781ZM4.66667 1.86667C4.66667 2.38194 4.48438 2.82188 4.11979 3.18646C3.75521 3.55104 3.31528 3.73333 2.8 3.73333C2.28472 3.73333 1.84479 3.55104 1.48021 3.18646C1.11563 2.82188 0.933333 2.38194 0.933333 1.86667C0.933333 1.35139 1.11563 0.911458 1.48021 0.546875C1.84479 0.182292 2.28472 0 2.8 0C3.31528 0 3.75521 0.182292 4.11979 0.546875C4.48438 0.911458 4.66667 1.35139 4.66667 1.86667ZM9.8 4.66667C9.8 5.43958 9.52656 6.09948 8.97969 6.64635C8.43281 7.19323 7.77292 7.46667 7 7.46667C6.22708 7.46667 5.56719 7.19323 5.02031 6.64635C4.47344 6.09948 4.2 5.43958 4.2 4.66667C4.2 3.89375 4.47344 3.23385 5.02031 2.68698C5.56719 2.1401 6.22708 1.86667 7 1.86667C7.77292 1.86667 8.43281 2.1401 8.97969 2.68698C9.52656 3.23385 9.8 3.89375 9.8 4.66667ZM14 6.30729C14 6.68646 13.8639 6.97448 13.5917 7.17135C13.3194 7.36823 12.984 7.46667 12.5854 7.46667H11.6083C11.1076 6.86875 10.4635 6.55764 9.67604 6.53333C10.0698 5.96458 10.2667 5.34236 10.2667 4.66667C10.2667 4.52569 10.2545 4.36528 10.2302 4.18542C10.551 4.29722 10.8743 4.35313 11.2 4.35313C11.4868 4.35313 11.776 4.30087 12.0677 4.19635C12.3594 4.09184 12.5964 3.98854 12.7786 3.88646C12.9609 3.78437 13.0667 3.73333 13.0958 3.73333C13.6986 3.73333 14 4.59132 14 6.30729ZM13.0667 1.86667C13.0667 2.38194 12.8844 2.82188 12.5198 3.18646C12.1552 3.55104 11.7153 3.73333 11.2 3.73333C10.6847 3.73333 10.2448 3.55104 9.88021 3.18646C9.51562 2.82188 9.33333 2.38194 9.33333 1.86667C9.33333 1.35139 9.51562 0.911458 9.88021 0.546875C10.2448 0.182292 10.6847 0 11.2 0C11.7153 0 12.1552 0.182292 12.5198 0.546875C12.8844 0.911458 13.0667 1.35139 13.0667 1.86667Z" fill="#003768"/>
</svg>
