<svg width="16" height="13" viewBox="0 0 16 13" fill="none" xmlns="http://www.w3.org/2000/svg">
<path d="M1.34131 6.28052V9.22686C1.34131 10.347 1.34131 10.907 1.5593 11.3348C1.75104 11.7112 2.057 12.0171 2.43333 12.2089C2.86115 12.4269 3.4212 12.4269 4.54131 12.4269H11.4584C12.5785 12.4269 13.1385 12.4269 13.5664 12.2089C13.9427 12.0171 14.2486 11.7112 14.4404 11.3348C14.6584 10.907 14.6584 10.347 14.6584 9.22686V6.28052" stroke="#003768"/>
<path d="M8.68293 8.15869L14.4324 6.41312C14.6361 6.35128 14.738 6.32036 14.8135 6.25962C14.8801 6.206 14.9319 6.13617 14.9638 6.05683C15 5.96696 15 5.86051 15 5.64763V4.46601C15 3.90596 15 3.62593 14.891 3.41202C14.7951 3.22386 14.6422 3.07088 14.454 2.975C14.2401 2.86601 13.9601 2.86601 13.4 2.86601H2.6C2.03995 2.86601 1.75992 2.86601 1.54601 2.975C1.35785 3.07088 1.20487 3.22386 1.10899 3.41202C1 3.62593 1 3.90596 1 4.46601V5.63871C1 5.85456 1 5.96249 1.037 6.05325C1.06965 6.13335 1.12253 6.20361 1.19047 6.25716C1.26743 6.31783 1.37115 6.3477 1.57857 6.40745L7.65854 8.15869" stroke="#003768"/>
<path d="M10 2.5V2C10 1.44772 9.55228 1 9 1H7C6.44772 1 6 1.44772 6 2V2.5" stroke="#003768" stroke-width="0.75"/>
<rect x="7.67529" y="7.49243" width="0.990854" height="1.67378" rx="0.495427" stroke="#003768" stroke-width="0.375"/>
</svg>
