<svg width="10" height="14" viewBox="0 0 10 14" fill="none" xmlns="http://www.w3.org/2000/svg">
<path d="M4.99984 0C2.32098 0 0.141602 2.17969 0.141602 4.85862C0.141602 7.43733 4.54956 13.4621 4.73725 13.7172L4.91241 13.9556C4.9329 13.9836 4.96552 14 4.99984 14C5.03469 14 5.06709 13.9836 5.08779 13.9556L5.26285 13.7172C5.45064 13.4621 9.85849 7.43733 9.85849 4.85862C9.85849 2.17969 7.67877 0 4.99984 0ZM4.99984 3.11827C5.95968 3.11827 6.74019 3.89881 6.74019 4.85862C6.74019 5.81794 5.95965 6.59897 4.99984 6.59897C4.04056 6.59897 3.25949 5.81794 3.25949 4.85862C3.25949 3.89881 4.04052 3.11827 4.99984 3.11827Z" fill="#003768"/>
</svg>
