<svg width="60" height="60" viewBox="0 0 60 60" fill="none" xmlns="http://www.w3.org/2000/svg">
<path d="M60 30C60 46.5685 46.5685 60 30 60C13.4315 60 0 46.5685 0 30C0 13.4315 13.4315 0 30 0C46.5685 0 60 13.4315 60 30Z" fill="#003768" fill-opacity="0.5"/>
<rect x="16.25" y="20.75" width="28.5" height="18.5" rx="1.25" stroke="white" stroke-width="1.5"/>
<path d="M29.2227 36.4452C25.786 36.4452 23.0001 33.6593 23.0001 30.2226C23.0001 26.786 25.786 24 29.2227 24C32.6593 24 35.4453 26.786 35.4453 30.2226C35.4453 33.6593 32.6593 36.4452 29.2227 36.4452Z" stroke="white" stroke-width="1.5" stroke-linecap="round" stroke-linejoin="round"/>
<path d="M36.0001 24.0555C36.0001 23.4726 36.4727 23 37.0557 23C37.6387 23 38.1113 23.4726 38.1113 24.0555C38.1113 24.6385 37.6387 25.111 37.0557 25.111C36.4727 25.111 36.0001 24.6385 36.0001 24.0555Z" fill="white"/>
</svg>
