<svg width="14" height="14" viewBox="0 0 14 14" fill="none" xmlns="http://www.w3.org/2000/svg">
<path d="M5.33498 1.83815C5.13249 1.33193 4.64221 1 4.09701 1H2.26316C1.56554 1 1 1.5654 1 2.26302C1 8.19282 5.80719 13 11.737 13C12.4346 13 13 12.4344 13 11.7368L13.0003 9.90265C13.0003 9.35744 12.6685 8.86724 12.1623 8.66476L10.4046 7.96196C9.94991 7.78008 9.4322 7.86194 9.05597 8.17546L8.60235 8.55379C8.07258 8.99526 7.29309 8.96015 6.80547 8.47253L5.52815 7.19404C5.04053 6.70642 5.00449 5.92756 5.44597 5.39779L5.82422 4.9442C6.13775 4.56797 6.22033 4.05011 6.03845 3.5954L5.33498 1.83815Z" stroke="#003768" stroke-width="1.25" stroke-linecap="round" stroke-linejoin="round"/>
</svg>
